<svg width="65" height="64" viewBox="0 0 65 64" fill="none" xmlns="http://www.w3.org/2000/svg">
<g clip-path="url(#clip0_223_22499)">
<path d="M37.8323 56.7738H27.5098C26.3696 56.7738 25.4453 55.8495 25.4453 54.7093V46.4512C25.4453 45.311 26.3697 44.3867 27.5098 44.3867H37.8324C38.9727 44.3867 39.8969 45.3111 39.8969 46.4512V54.7093C39.8968 55.8495 38.9726 56.7738 37.8323 56.7738Z" fill="white"/>
<path d="M62.6059 56.7748H52.2833C51.143 56.7748 50.2188 55.8504 50.2188 54.7103V46.4522C50.2188 45.3119 51.1431 44.3877 52.2833 44.3877H62.6059C63.7461 44.3877 64.6704 45.3121 64.6704 46.4522V54.7103C64.6704 55.8504 63.746 56.7748 62.6059 56.7748Z" fill="white"/>
<path d="M55.3754 30.9681H33.698V20.6455H31.6335V30.9681H9.95612C8.2485 30.9681 6.85938 32.3573 6.85938 34.0649V40.2584C6.85938 40.8284 7.32112 41.2906 7.89162 41.2906C8.46212 41.2906 8.92387 40.8284 8.92387 40.2584V34.0649C8.92387 33.4959 9.38662 33.0326 9.95612 33.0326H31.6335V40.2584C31.6335 40.8284 32.0952 41.2906 32.6657 41.2906C33.2362 41.2906 33.698 40.8284 33.698 40.2584V33.0326H55.3754C55.9449 33.0326 56.4076 33.4959 56.4076 34.0649V40.2584C56.4076 40.8284 56.8694 41.2906 57.4399 41.2906C58.0104 41.2906 58.4721 40.8284 58.4721 40.2584V34.0649C58.4722 32.3573 57.0831 30.9681 55.3754 30.9681Z" fill="#0585F2"/>
<path d="M37.8323 54.71H27.5098C26.3697 54.71 25.4453 53.7856 25.4453 52.6455V54.71C25.4453 55.8501 26.3697 56.7745 27.5098 56.7745H37.8324C38.9726 56.7745 39.8969 55.8501 39.8969 54.71V52.6455C39.8968 53.7858 38.9726 54.71 37.8323 54.71Z" fill="#0585F2"/>
<path d="M62.6059 54.71H52.2833C51.1431 54.71 50.2188 53.7856 50.2188 52.6455V54.71C50.2188 55.8501 51.1431 56.7745 52.2833 56.7745H62.6059C63.746 56.7745 64.6704 55.8501 64.6704 54.71V52.6455C64.6704 53.7858 63.746 54.71 62.6059 54.71Z" fill="#0585F2"/>
<path d="M13.0551 56.774H2.73247C1.59234 56.774 0.667969 55.8496 0.667969 54.7093V46.4512C0.667969 45.311 1.59234 44.3867 2.73247 44.3867H13.0551C14.1953 44.3867 15.1196 45.3111 15.1196 46.4512V54.7093C15.1196 55.8496 14.1952 56.774 13.0551 56.774Z" fill="white"/>
<path d="M13.0551 54.71H2.73247C1.59234 54.71 0.667969 53.7858 0.667969 52.6455V54.71C0.667969 55.8501 1.59234 56.7745 2.73247 56.7745H13.0551C14.1952 56.7745 15.1196 55.8501 15.1196 54.71V52.6455C15.1196 53.7858 14.1952 54.71 13.0551 54.71Z" fill="#0585F2"/>
<path d="M32.6711 21.6771C36.6617 21.6771 39.8968 18.442 39.8968 14.4513C39.8968 10.4607 36.6617 7.22559 32.6711 7.22559C28.6804 7.22559 25.4453 10.4607 25.4453 14.4513C25.4453 18.442 28.6804 21.6771 32.6711 21.6771Z" fill="#63B5FB"/>
<path d="M29.7515 17.3715C27.3058 14.9259 26.9836 11.1649 28.7771 8.36816C28.3468 8.64404 27.9378 8.96629 27.5617 9.34254C24.7398 12.1644 24.7398 16.7395 27.5617 19.5614C30.3836 22.3833 34.9587 22.3833 37.7806 19.5614C38.1567 19.1853 38.479 18.7762 38.755 18.346C35.9581 20.1394 32.1971 19.8172 29.7515 17.3715Z" fill="#0585F2"/>
</g>
<defs>
<clipPath id="clip0_223_22499">
<rect width="64" height="64" fill="white" transform="translate(0.667969)"/>
</clipPath>
</defs>
</svg>
