<svg width="64" height="64" viewBox="0 0 64 64" fill="none" xmlns="http://www.w3.org/2000/svg">
<path d="M45.425 48.0629C49.55 48.0629 52.9125 44.7004 52.9125 40.5754C52.9125 36.4504 49.55 33.0879 45.425 33.0879C41.3 33.0879 37.9375 36.4504 37.9375 40.5754C37.9375 44.7004 41.3 48.0629 45.425 48.0629ZM45.425 36.1379C47.8625 36.1379 49.85 38.1254 49.85 40.5629C49.85 43.0004 47.8625 44.9879 45.425 44.9879C42.9875 44.9879 41 43.0129 41 40.5629C41 38.1254 42.9875 36.1379 45.425 36.1379Z" fill="#0585F2"/>
<path d="M30.8984 36.6123C29.4859 36.6123 28.3359 37.7623 28.3359 39.1748V41.9748C28.3359 43.3873 29.4859 44.5373 30.8984 44.5373H32.0234C32.2984 45.4873 32.6734 46.3998 33.1484 47.2623L32.3484 48.0623C31.8609 48.5498 31.5984 49.1873 31.5984 49.8748C31.5984 50.5623 31.8609 51.1998 32.3484 51.6873L34.3234 53.6623C34.8109 54.1498 35.4484 54.4123 36.1359 54.4123C36.8234 54.4123 37.4609 54.1498 37.9484 53.6623L38.7484 52.8623C39.6109 53.3373 40.5234 53.7123 41.4734 53.9873V55.1123C41.4734 56.5248 42.6234 57.6748 44.0359 57.6748H46.8359C48.2484 57.6748 49.3984 56.5248 49.3984 55.1123V53.9873C50.3484 53.7123 51.2609 53.3373 52.1234 52.8623L52.9234 53.6623C53.4109 54.1498 54.0484 54.4123 54.7359 54.4123C55.4234 54.4123 56.0609 54.1498 56.5484 53.6623L58.5234 51.6873C59.5234 50.6873 59.5234 49.0623 58.5234 48.0748L57.7234 47.2748C58.1984 46.4123 58.5734 45.4998 58.8484 44.5498H59.9734C61.3859 44.5498 62.5359 43.3998 62.5359 41.9873V39.1873C62.5359 37.7748 61.3859 36.6248 59.9734 36.6248H58.8484C58.5734 35.6748 58.1984 34.7623 57.7234 33.8998L58.5234 33.0998C59.0109 32.6123 59.2734 31.9748 59.2734 31.2873C59.2734 30.5998 59.0109 29.9623 58.5234 29.4748L56.5234 27.4998C56.0359 27.0123 55.3984 26.7498 54.7109 26.7498C54.0234 26.7498 53.3859 27.0123 52.8984 27.4998L52.0984 28.2998C51.2359 27.8248 50.3234 27.4498 49.3734 27.1748V26.0498C49.3734 24.6373 48.2234 23.4873 46.8109 23.4873H44.0109C42.5984 23.4873 41.4484 24.6373 41.4484 26.0498V27.1748C40.4984 27.4498 39.5859 27.8248 38.7234 28.2998L37.9234 27.4998C37.4359 27.0123 36.7984 26.7498 36.1109 26.7498C35.4234 26.7498 34.7859 27.0123 34.2984 27.4998L32.3234 29.4748C31.8359 29.9623 31.5734 30.5998 31.5734 31.2873C31.5734 31.9748 31.8359 32.6123 32.3234 33.0998L33.1234 33.8998C32.6484 34.7623 32.2734 35.6748 31.9984 36.6248H30.8984V36.6123ZM33.2234 39.6748C33.9484 39.6748 34.5859 39.1623 34.7234 38.4373C34.9984 37.0248 35.5484 35.6998 36.3484 34.4998C36.7609 33.8873 36.6734 33.0873 36.1609 32.5623L34.8734 31.2748L36.1359 30.0123L37.4234 31.2998C37.9359 31.8123 38.7484 31.8998 39.3609 31.4873C40.5609 30.6873 41.8859 30.1373 43.2984 29.8623C44.0109 29.7248 44.5359 29.0873 44.5359 28.3623V26.5373H46.3234V28.3623C46.3234 29.0998 46.8359 29.7248 47.5609 29.8623C48.9734 30.1373 50.2984 30.6873 51.4984 31.4873C52.1109 31.8998 52.9109 31.8123 53.4359 31.2998L54.7234 30.0123L55.9859 31.2748L54.6984 32.5623C54.1859 33.0748 54.0984 33.8873 54.5109 34.4998C55.3109 35.6998 55.8609 37.0248 56.1359 38.4373C56.2734 39.1498 56.9109 39.6748 57.6359 39.6748H59.4609V41.4623H57.6359C56.9109 41.4623 56.2734 41.9748 56.1359 42.6998C55.8609 44.1123 55.3109 45.4373 54.5109 46.6373C54.0984 47.2498 54.1859 48.0498 54.6984 48.5748L55.9859 49.8623L54.7234 51.1248L53.4359 49.8373C52.9234 49.3248 52.1109 49.2373 51.4984 49.6498C50.2984 50.4498 48.9734 50.9998 47.5609 51.2873C46.8484 51.4248 46.3234 52.0623 46.3234 52.7873V54.6123H44.5359V52.7873C44.5359 52.0498 44.0234 51.4248 43.2984 51.2873C41.8859 51.0123 40.5609 50.4623 39.3609 49.6498C38.7484 49.2498 37.9484 49.3248 37.4234 49.8373L36.1359 51.1248L34.8734 49.8623L36.1609 48.5748C36.6734 48.0623 36.7609 47.2498 36.3484 46.6373C35.5484 45.4373 34.9984 44.1123 34.7234 42.6998C34.5859 41.9873 33.9484 41.4623 33.2234 41.4623H31.3984V39.6748H33.2234Z" fill="#0585F2"/>
<path d="M7.87656 14.2626C8.27656 14.2626 8.67656 14.1001 8.96407 13.8126C9.25157 13.5251 9.41407 13.1376 9.41407 12.7251C9.41407 12.3251 9.25157 11.9251 8.96407 11.6376C8.38906 11.0751 7.36406 11.0751 6.80156 11.6501C6.51406 11.9376 6.35156 12.3251 6.35156 12.7251C6.35156 13.1251 6.51406 13.5251 6.80156 13.8126C7.07656 14.1126 7.47656 14.2626 7.87656 14.2626Z" fill="#0585F2"/>
<path d="M12.7406 14.2626C13.1406 14.2626 13.5406 14.1001 13.8156 13.8126C14.1031 13.5251 14.2656 13.1376 14.2656 12.7251C14.2656 12.3251 14.1031 11.9251 13.8156 11.6376C13.2406 11.0751 12.2156 11.0751 11.6531 11.6501C11.3656 11.9376 11.2031 12.3251 11.2031 12.7251C11.2031 13.1251 11.3656 13.5251 11.6531 13.8126C11.9406 14.1126 12.3406 14.2626 12.7406 14.2626Z" fill="#0585F2"/>
<path d="M17.6031 14.2625C18.0031 14.2625 18.4031 14.1 18.6906 13.8125C18.9781 13.525 19.1406 13.1375 19.1406 12.725C19.1406 12.325 18.9781 11.925 18.6906 11.65C18.1156 11.075 17.0906 11.075 16.5281 11.65C16.2406 11.9375 16.0781 12.325 16.0781 12.725C16.0781 13.125 16.2406 13.525 16.5281 13.8125C16.8031 14.1125 17.2031 14.2625 17.6031 14.2625Z" fill="#0585F2"/>
</svg>
