<svg width="65" height="64" viewBox="0 0 65 64" fill="none" xmlns="http://www.w3.org/2000/svg">
<g clip-path="url(#clip0_223_22511)">
<path d="M21.9061 19.6796H27.0498V23.2493H25.1273C24.5573 23.2493 24.0952 23.7113 24.0952 24.2814C24.0952 24.8516 24.5573 25.3136 25.1273 25.3136H39.5371C40.1073 25.3136 40.5692 24.8516 40.5692 24.2814C40.5692 23.7113 40.1073 23.2493 39.5371 23.2493H37.6146V19.6796H42.7583C44.7851 19.6796 46.4339 18.0308 46.4339 16.004V3.67953C46.4339 1.6527 44.7851 0.00390625 42.7583 0.00390625H21.9061C19.8793 0.00390625 18.2305 1.6527 18.2305 3.67953V16.004C18.2305 18.0308 19.8794 19.6796 21.9061 19.6796ZM35.5505 23.2493H29.1141V19.6796H35.5505V23.2493ZM20.2947 3.67953C20.2947 2.79107 21.0175 2.06817 21.9061 2.06817H42.7585C43.6469 2.06817 44.3698 2.79107 44.3698 3.67953V16.004C44.3698 16.8925 43.6469 17.6154 42.7585 17.6154H21.9061C21.0175 17.6154 20.2947 16.8925 20.2947 16.004V3.67953Z" fill="white"/>
<path d="M24.86 38.6865H4.00766C1.98083 38.6865 0.332031 40.3355 0.332031 42.3622V54.6866C0.332031 56.7135 1.98083 58.3623 4.00766 58.3623H9.15139V61.9319H7.22887C6.65886 61.9319 6.19674 62.3939 6.19674 62.9641C6.19674 63.5342 6.65886 63.9962 7.22887 63.9962H21.6385C22.2085 63.9962 22.6707 63.5342 22.6707 62.9641C22.6707 62.3939 22.2085 61.9319 21.6385 61.9319H19.7161V58.3623H24.8599C26.8867 58.3623 28.5355 56.7135 28.5355 54.6866V42.3622C28.5356 40.3355 26.8867 38.6865 24.86 38.6865ZM17.652 61.9319H11.2157V58.3623H17.652V61.9319ZM26.4714 54.6866C26.4714 55.5751 25.7486 56.298 24.86 56.298H4.00766C3.11906 56.298 2.39629 55.5751 2.39629 54.6866V42.3622C2.39629 41.4737 3.11906 40.7508 4.00766 40.7508H24.86C25.7486 40.7508 26.4714 41.4737 26.4714 42.3622V54.6866Z" fill="white"/>
<path d="M60.657 38.6865H39.8045C37.7777 38.6865 36.1289 40.3353 36.1289 42.3622V54.6866C36.1289 56.7135 37.7777 58.3623 39.8045 58.3623H44.9483V61.9319H43.0259C42.4557 61.9319 41.9937 62.3939 41.9937 62.9641C41.9937 63.5342 42.4557 63.9962 43.0259 63.9962H57.4355C58.0057 63.9962 58.4677 63.5342 58.4677 62.9641C58.4677 62.3939 58.0057 61.9319 57.4355 61.9319H55.5132V58.3623H60.6569C62.6837 58.3623 64.3325 56.7135 64.3325 54.6866V42.3622C64.3327 40.3355 62.6837 38.6865 60.657 38.6865ZM53.449 61.9319H47.0125V58.3623H53.449V61.9319ZM62.2684 54.6866C62.2684 55.5751 61.5455 56.298 60.657 56.298H39.8045C38.9161 56.298 38.1932 55.5751 38.1932 54.6866V42.3622C38.1932 41.4737 38.9161 40.7508 39.8045 40.7508H60.6569C61.5453 40.7508 62.2683 41.4737 62.2683 42.3622V54.6866H62.2684Z" fill="#0585F2"/>
<path d="M49.1987 35.5901C49.1987 36.1603 49.6607 36.6222 50.2309 36.6222C50.801 36.6222 51.263 36.1603 51.263 35.5901V32.0001C51.263 31.4299 50.801 30.968 50.2309 30.968H33.3647V28.4101C33.3647 27.8399 32.9027 27.3779 32.3326 27.3779C31.7626 27.3779 31.3005 27.8399 31.3005 28.4101V30.968H14.4345C13.8645 30.968 13.4023 31.4299 13.4023 32.0001V35.5901C13.4023 36.1603 13.8645 36.6222 14.4345 36.6222C15.0045 36.6222 15.4666 36.1603 15.4666 35.5901V33.0322H49.1987V35.5901Z" fill="#0585F2"/>
</g>
<defs>
<clipPath id="clip0_223_22511">
<rect width="64" height="64" fill="white" transform="translate(0.332031)"/>
</clipPath>
</defs>
</svg>
