<svg width="65" height="64" viewBox="0 0 65 64" fill="none" xmlns="http://www.w3.org/2000/svg">
<path d="M16.6641 42.6667V37.3333C16.6641 35.9188 17.226 34.5623 18.2262 33.5621C19.2264 32.5619 20.5829 32 21.9974 32H43.3307C44.7452 32 46.1018 32.5619 47.102 33.5621C48.1022 34.5623 48.6641 35.9188 48.6641 37.3333V42.6667" stroke="#0585F2" stroke-width="3" stroke-linecap="round" stroke-linejoin="round"/>
<path d="M32.6641 24V32" stroke="#0585F2" stroke-width="3" stroke-linecap="round" stroke-linejoin="round"/>
<path d="M22 42.6665H11.3333C8.38781 42.6665 6 45.0543 6 47.9998V50.6665C6 53.612 8.38781 55.9998 11.3333 55.9998H22C24.9455 55.9998 27.3333 53.612 27.3333 50.6665V47.9998C27.3333 45.0543 24.9455 42.6665 22 42.6665Z" stroke="white" stroke-width="3" stroke-linecap="round" stroke-linejoin="round"/>
<path d="M54 42.6665H43.3333C40.3878 42.6665 38 45.0543 38 47.9998V50.6665C38 53.612 40.3878 55.9998 43.3333 55.9998H54C56.9455 55.9998 59.3333 53.612 59.3333 50.6665V47.9998C59.3333 45.0543 56.9455 42.6665 54 42.6665Z" stroke="#0585F2" stroke-width="3" stroke-linecap="round" stroke-linejoin="round"/>
<path d="M32.6641 24C37.0823 24 40.6641 20.4183 40.6641 16C40.6641 11.5817 37.0823 8 32.6641 8C28.2458 8 24.6641 11.5817 24.6641 16C24.6641 20.4183 28.2458 24 32.6641 24Z" stroke="white" stroke-width="3" stroke-linecap="round" stroke-linejoin="round"/>
</svg>
