<svg width="65" height="64" viewBox="0 0 65 64" fill="none" xmlns="http://www.w3.org/2000/svg">
<path d="M35.1899 7.31337V5.04862H37.0121C38.4062 5.04862 39.5364 3.91838 39.5364 2.52437C39.5364 1.13037 38.4061 0 37.0121 0H28.3191C26.925 0 25.7949 1.13025 25.7949 2.52425C25.7949 3.91825 26.9251 5.0485 28.3191 5.0485H30.1414V7.31325C15.6597 8.595 4.26562 20.7909 4.26562 35.5999C4.26562 51.2598 17.0059 64 32.6657 64C48.3256 64 61.0659 51.2598 61.0659 35.5999C61.0657 20.7909 49.6715 8.595 35.1899 7.31337ZM35.1899 58.8145V56.299C35.1899 54.9049 34.0596 53.7747 32.6656 53.7747C31.2715 53.7747 30.1414 54.905 30.1414 56.299V58.8145C19.2776 57.6414 10.6242 48.9877 9.45112 38.1242H11.9666C13.3607 38.1242 14.4909 36.994 14.4909 35.6C14.4909 34.206 13.3606 33.0757 11.9666 33.0757H9.451C10.6241 22.212 19.2777 13.5586 30.1412 12.3854V14.9009C30.1412 16.295 31.2715 17.4251 32.6655 17.4251C34.0596 17.4251 35.1897 16.2949 35.1897 14.9009V12.3851C46.0535 13.5583 54.7069 22.2119 55.88 33.0755H53.3645C51.9704 33.0755 50.8402 34.2057 50.8402 35.5998C50.8402 36.9938 51.9705 38.124 53.3645 38.124H55.8802C54.7071 48.9879 46.0536 57.6415 35.1899 58.8145Z" fill="#0585F2"/>
<path d="M40.3239 24.3737L33.0516 31.6462C32.9252 31.6341 32.7973 31.6273 32.6677 31.6273C30.4737 31.6273 28.6953 33.406 28.6953 35.5997C28.6953 37.7937 30.4738 39.5721 32.6677 39.5721C34.8616 39.5721 36.6401 37.7935 36.6401 35.5997C36.6401 35.4701 36.6333 35.3422 36.6212 35.216L43.8934 27.9435C44.8793 26.9578 44.8793 25.3594 43.8934 24.3736C42.9082 23.3878 41.3098 23.3878 40.3239 24.3737Z" fill="white"/>
</svg>
