<svg width="65" height="64" viewBox="0 0 65 64" fill="none" xmlns="http://www.w3.org/2000/svg">
<g clip-path="url(#clip0_223_22553)">
<path d="M11.6232 26.0527C9.44869 26.0527 7.67969 27.8219 7.67969 29.9962C7.67969 32.1706 9.44869 33.9397 11.6232 33.9397C13.7977 33.9397 15.5667 32.1706 15.5667 29.9962C15.5667 27.8219 13.7977 26.0527 11.6232 26.0527ZM11.6232 32.0649C10.4826 32.0649 9.55469 31.137 9.55469 29.9964C9.55469 28.8557 10.4826 27.9279 11.6232 27.9279C12.7638 27.9279 13.6917 28.8557 13.6917 29.9964C13.6917 31.137 12.7638 32.0649 11.6232 32.0649Z" fill="#0585F2"/>
<path d="M49.7656 29.9962C49.7656 32.1707 51.5346 33.9397 53.7091 33.9397C55.8836 33.9397 57.6526 32.1706 57.6526 29.9962C57.6526 27.8219 55.8836 26.0527 53.7091 26.0527C51.5346 26.0527 49.7656 27.8217 49.7656 29.9962ZM55.7776 29.9962C55.7776 31.1369 54.8498 32.0647 53.7091 32.0647C52.5685 32.0647 51.6406 31.1369 51.6406 29.9962C51.6406 28.8556 52.5685 27.9277 53.7091 27.9277C54.8498 27.9277 55.7776 28.8556 55.7776 29.9962Z" fill="#0585F2"/>
<path d="M62.849 25.9594C62.5631 25.5276 61.9815 25.4096 61.5497 25.6954C61.118 25.9813 60.9998 26.563 61.2857 26.9947C62.2718 28.4835 62.793 30.2144 62.793 32C62.793 34.88 61.4441 37.4491 59.3466 39.1144C58.5501 36.7395 56.3147 35.0705 53.7102 35.0705C51.1305 35.0705 48.8796 36.7624 48.0766 39.1165C45.9776 37.4514 44.6275 34.8812 44.6275 32C44.6275 26.9919 48.702 22.9174 53.7102 22.9174C55.4958 22.9174 57.2266 23.4385 58.7155 24.4245C59.1471 24.7104 59.7288 24.5921 60.0147 24.1605C60.3006 23.7288 60.1825 23.1471 59.7507 22.8611C57.9538 21.6711 55.8651 21.0422 53.7101 21.0422C53.0642 21.0422 52.4312 21.0989 51.8157 21.2065C49.836 17.6974 46.9678 14.8274 43.4613 12.85C43.5688 12.2351 43.6253 11.6028 43.6253 10.9575C43.6253 8.80263 42.9963 6.71375 41.8063 4.91687C41.5206 4.48525 40.9388 4.36713 40.5071 4.65287C40.0753 4.93875 39.9572 5.5205 40.2431 5.95213C41.2291 7.44112 41.7503 9.17188 41.7503 10.9575C41.7503 13.8375 40.4015 16.4066 38.304 18.0719C37.5075 15.697 35.2721 14.028 32.6676 14.028C30.0878 14.028 27.837 15.7199 27.0341 18.074C24.9351 16.4089 23.585 13.8388 23.585 10.9575C23.5853 5.9495 27.6598 1.875 32.668 1.875C34.4536 1.875 36.1845 2.39613 37.6732 3.38225C38.1047 3.66813 38.6866 3.54987 38.9725 3.11825C39.2583 2.68663 39.1402 2.10488 38.7085 1.81887C36.9117 0.629 34.823 0 32.668 0C26.626 0 21.7103 4.91563 21.7103 10.9576C21.7103 11.6035 21.767 12.2361 21.8746 12.8515C18.37 14.8287 15.4986 17.701 13.5198 21.2079C12.8981 21.0989 12.2648 21.0422 11.6256 21.0422C5.58359 21.0424 0.667969 25.9579 0.667969 32C0.667969 38.0421 5.58359 42.9576 11.6256 42.9576C12.2712 42.9576 12.9038 42.9011 13.5191 42.7935C15.4976 46.3014 18.3665 49.1702 21.8745 51.1489C21.7668 51.7641 21.7102 52.3967 21.7102 53.0424C21.7103 59.0844 26.626 64 32.668 64C38.71 64 43.6256 59.0844 43.6256 53.0424C43.6256 52.4024 43.5688 51.7685 43.4596 51.146C46.9705 49.1667 49.8398 46.3036 51.8186 42.7938C52.4333 42.9011 53.0652 42.9576 53.7102 42.9576C59.7523 42.9576 64.668 38.0421 64.668 32C64.668 29.845 64.039 27.7563 62.849 25.9594ZM32.668 15.9032C34.6112 15.9032 36.2548 17.2591 36.6501 19.1187C35.447 19.7083 34.0957 20.0404 32.668 20.0404C31.2407 20.0404 29.89 19.7085 28.6871 19.1195C29.0845 17.2797 30.742 15.9032 32.668 15.9032ZM7.64472 40.1618C8.04209 38.3221 9.69959 36.9456 11.6256 36.9456C13.569 36.9456 15.2126 38.3015 15.6077 40.1611C14.4045 40.7506 13.0532 41.0827 11.6256 41.0827C10.1983 41.0826 8.84759 40.7508 7.64472 40.1618ZM28.6871 61.204C29.0845 59.3644 30.742 57.9879 32.668 57.9879C34.6112 57.9879 36.2548 59.3438 36.6501 61.2034C35.4468 61.7929 34.0957 62.125 32.668 62.125C31.2407 62.125 29.89 61.7931 28.6871 61.204ZM42.9556 49.2738C42.664 48.4798 42.2806 47.7173 41.8067 47.0018C41.521 46.57 40.9392 46.4519 40.5075 46.7378C40.0757 47.0236 39.9576 47.6053 40.2435 48.0371C41.2295 49.526 41.7507 51.2569 41.7507 53.0425C41.7507 55.9224 40.4018 58.4916 38.3043 60.1569C37.5077 57.782 35.2725 56.1131 32.668 56.1131C30.0882 56.1131 27.8373 57.8049 27.0345 60.1591C24.9355 58.494 23.5853 55.9238 23.5853 53.0426C23.5853 48.0345 27.6598 43.96 32.668 43.96C34.4536 43.96 36.1843 44.4811 37.6732 45.4671C38.1047 45.753 38.6866 45.6349 38.9725 45.2031C39.2583 44.7714 39.1402 44.1897 38.7085 43.9039C36.9116 42.7139 34.8228 42.085 32.6678 42.085C27.9501 42.085 23.9192 45.0819 22.3788 49.272C19.4976 47.5557 17.1116 45.1706 15.3952 42.2897C19.5858 40.7496 22.5832 36.7185 22.5832 32.0004C22.5832 29.8455 21.9542 27.7568 20.7643 25.9597C20.4783 25.528 19.8967 25.41 19.465 25.6957C19.0333 25.9816 18.9151 26.5634 19.201 26.9951C20.1871 28.4841 20.7082 30.215 20.7082 32.0005C20.7082 34.8805 19.3593 37.4496 17.2618 39.1149C16.4653 36.74 14.23 35.0711 11.6255 35.0711C9.04572 35.0711 6.79484 36.763 5.99197 39.1171C3.89309 37.4514 2.54297 34.8812 2.54297 32C2.54297 26.9919 6.61747 22.9174 11.6256 22.9174C13.4112 22.9174 15.142 23.4385 16.6308 24.4245C17.0623 24.7104 17.6442 24.5921 17.9301 24.1605C18.216 23.7288 18.0978 23.1471 17.6661 22.8611C16.9502 22.3871 16.1876 22.0037 15.3933 21.712C17.1101 18.8309 19.4992 16.443 22.3785 14.7273C23.9186 18.9177 27.9497 21.9153 32.6678 21.9153C37.386 21.9153 41.4171 18.9179 42.9572 14.7274C45.8373 16.4429 48.2236 18.8284 49.9407 21.7105C45.75 23.2505 42.7525 27.2817 42.7525 32C42.7525 36.7181 45.75 40.7494 49.9406 42.2894C48.2241 45.1725 45.8395 47.5569 42.9556 49.2738ZM49.7293 40.1616C50.1267 38.322 51.7843 36.9455 53.7103 36.9455C55.6536 36.9455 57.2972 38.3014 57.6925 40.161C56.4893 40.7505 55.1381 41.0826 53.7103 41.0826C52.2831 41.0826 50.9322 40.7508 49.7293 40.1616Z" fill="white"/>
<path d="M28.7266 8.95327C28.7266 11.1278 30.4956 12.8969 32.6701 12.8969C34.8446 12.8969 36.6136 11.1278 36.6136 8.95327C36.6136 6.77877 34.8446 5.00977 32.6701 5.00977C30.4956 5.00977 28.7266 6.77877 28.7266 8.95327ZM34.7386 8.95327C34.7386 10.0939 33.8107 11.0219 32.6701 11.0219C31.5294 11.0219 30.6016 10.0939 30.6016 8.95327C30.6016 7.81264 31.5294 6.88477 32.6701 6.88477C33.8107 6.88477 34.7386 7.81264 34.7386 8.95327Z" fill="#0585F2"/>
<path d="M32.6701 47.0947C30.4956 47.0947 28.7266 48.8639 28.7266 51.0384C28.7266 53.2129 30.4956 54.9819 32.6701 54.9819C34.8446 54.9819 36.6136 53.2129 36.6136 51.0384C36.6136 48.8639 34.8446 47.0947 32.6701 47.0947ZM32.6701 53.1067C31.5294 53.1067 30.6016 52.1789 30.6016 51.0382C30.6016 49.8976 31.5294 48.9696 32.6701 48.9696C33.8107 48.9696 34.7386 49.8976 34.7386 51.0382C34.7386 52.1789 33.8107 53.1067 32.6701 53.1067Z" fill="#0585F2"/>
</g>
<defs>
<clipPath id="clip0_223_22553">
<rect width="64" height="64" fill="white" transform="translate(0.667969)"/>
</clipPath>
</defs>
</svg>
