<svg width="68" height="72" viewBox="0 0 68 72" fill="none" xmlns="http://www.w3.org/2000/svg">
<g clip-path="url(#clip0_223_22494)">
<path d="M60.713 12.4865L51.8488 11.9823C50.3433 11.8966 49.1777 12.9644 49.2471 14.3656C49.3166 15.7669 50.5634 16.339 52.0689 16.4247L60.9331 16.9289L62.6309 51.1987L6.71823 48.0184L5.02046 13.7485L13.8847 14.2527C15.3902 14.3384 16.5872 13.9053 16.5178 12.504C16.4484 11.1027 15.1701 9.89599 13.6646 9.81035L4.80037 9.30616C2.16566 9.1563 0.12594 11.0249 0.247425 13.4771L1.9452 47.7469C2.06668 50.1991 4.3036 52.311 6.93831 52.4608L27.8251 53.6489C27.5663 54.9023 26.8203 56.9179 24.6529 58.9007C24.2809 59.2415 24.1907 59.7806 24.4269 60.2674C24.6604 60.7541 25.1749 61.0922 25.7259 61.1235L44.818 62.2095C45.3689 62.2408 45.8527 61.9595 46.0392 61.4968C46.2257 61.034 46.0814 60.4815 45.6761 60.0965C43.3051 57.8581 42.3301 55.7446 41.9287 54.4511L62.851 55.6411C65.4857 55.791 67.5254 53.9224 67.4039 51.4702L65.7061 17.2003C65.5847 14.7481 63.3477 12.6363 60.713 12.4865Z" fill="white"/>
<path d="M20.1955 17.2723L22.5753 20.9516C22.9465 21.5271 23.6915 21.7973 24.3147 21.5847L27.088 20.6337C27.8023 21.1628 28.5574 21.6361 29.383 21.997L29.8979 24.8133C30.014 25.4553 30.6158 25.9654 31.3032 26.0045L35.7134 26.2553C36.4007 26.2944 36.9581 25.8502 37.0112 25.2204L37.2491 22.4469C38.0435 22.1782 38.7585 21.786 39.4216 21.3377L42.3049 22.6079C42.9528 22.8929 43.6751 22.7061 43.9912 22.1697L46.019 18.7412C46.3352 18.2073 46.1475 17.4929 45.58 17.0734L43.0368 15.2023C43.0719 14.8119 43.129 14.4279 43.1088 14.0192C43.0885 13.6105 42.9929 13.2178 42.9216 12.8213L45.2933 11.2299C45.8224 10.8752 45.9401 10.1782 45.5689 9.60269L43.1864 5.92327C42.8153 5.35033 42.0702 5.07759 41.4497 5.29038L38.6763 6.23883C37.962 5.70965 37.2069 5.23637 36.3813 4.87552L35.8665 2.05921C35.7477 1.41962 35.1459 0.909488 34.4586 0.870393L30.0483 0.619537C29.361 0.580443 28.8037 1.02464 28.7505 1.65446L28.5126 4.42795C27.7154 4.69649 27.0033 5.08885 26.3374 5.53699L23.4568 4.26694C22.8089 3.98202 22.0866 4.16875 21.7705 4.70514L19.7428 8.1337C19.4265 8.66755 19.6142 9.38194 20.1817 9.80152L22.7249 11.6726C22.6898 12.0629 22.6327 12.447 22.6529 12.8557C22.6732 13.2644 22.7688 13.6571 22.8401 14.0535L20.4712 15.6452C19.9421 15.9998 19.8216 16.6967 20.1955 17.2723V17.2723ZM32.6293 8.36042C35.6432 8.53184 38.1968 10.9427 38.3357 13.7477C38.4747 16.5528 36.1462 18.6859 33.1324 18.5145C30.1185 18.343 27.5649 15.9322 27.426 13.1272C27.287 10.3221 29.6155 8.18899 32.6293 8.36042Z" fill="#0585F2"/>
</g>
<defs>
<clipPath id="clip0_223_22494">
<rect width="68" height="72" fill="white"/>
</clipPath>
</defs>
</svg>
