<svg width="64" height="64" viewBox="0 0 64 64" fill="none" xmlns="http://www.w3.org/2000/svg">
<g clip-path="url(#clip0_223_22520)">
<path d="M14.5483 8.72736C15.3515 8.72736 16.0028 8.07616 16.0028 7.27286C16.0028 6.46956 15.3515 5.81836 14.5483 5.81836C13.745 5.81836 13.0938 6.46956 13.0938 7.27286C13.0938 8.07616 13.745 8.72736 14.5483 8.72736Z" fill="#F6F6F6"/>
<path d="M33.4524 4.36377H30.5433C28.0706 4.36377 26.1797 6.25465 26.1797 8.7274V13.091C26.1797 16.291 28.7978 18.9091 31.9978 18.9091C35.1978 18.9091 37.8159 16.291 37.8159 13.091V8.7274C37.8161 6.25465 35.9252 4.36377 33.4524 4.36377ZM34.9071 13.091C34.9071 14.691 33.5979 16.0001 31.9979 16.0001C30.3979 16.0001 29.0888 14.691 29.0888 13.091V8.7274C29.0888 7.85465 29.6707 7.2729 30.5433 7.2729H33.4524C34.3252 7.2729 34.9069 7.85477 34.9069 8.7274V13.091H34.9071Z" fill="#0585F2"/>
<path d="M36.3633 21.8184H27.636C23.5633 21.8184 20.3633 25.0184 20.3633 29.0911C20.3633 29.9639 20.9452 30.5456 21.8178 30.5456C22.6904 30.5456 23.2723 29.9637 23.2723 29.0911C23.2723 26.6184 25.1632 24.7275 27.6359 24.7275H36.3632C38.8359 24.7275 40.7268 26.6184 40.7268 29.0911C40.7268 29.9639 41.3087 30.5456 42.1813 30.5456C43.054 30.5456 43.6358 29.9637 43.6358 29.0911C43.636 25.0184 40.436 21.8184 36.3633 21.8184Z" fill="#0585F2"/>
<path d="M55.2734 0H8.72794C7.85519 0 7.27344 0.581875 7.27344 1.4545V33.4545C7.27344 34.3272 7.85531 34.909 8.72794 34.909H55.2734C56.1462 34.909 56.7279 34.3271 56.7279 33.4545V1.4545C56.7279 0.581875 56.1462 0 55.2734 0ZM53.8188 32H10.1826V2.90913H53.8189V32H53.8188Z" fill="white"/>
<path d="M33.4524 37.8184H30.5433C28.0706 37.8184 26.1797 39.7092 26.1797 42.182V46.5456C26.1797 49.7456 28.7978 52.3637 31.9978 52.3637C35.1978 52.3637 37.8159 49.7456 37.8159 46.5456V42.182C37.8161 39.7094 35.9252 37.8184 33.4524 37.8184ZM34.9071 46.5457C34.9071 48.1457 33.5979 49.4549 31.9979 49.4549C30.3979 49.4549 29.0888 48.1457 29.0888 46.5457V42.1821C29.0888 41.3094 29.6707 40.7276 30.5433 40.7276H33.4524C34.3252 40.7276 34.9069 41.3095 34.9069 42.1821V46.5457H34.9071Z" fill="white"/>
<path d="M34.9112 55.2725H29.0931C25.0203 55.2725 21.8203 58.4725 21.8203 62.5452C21.8203 63.418 22.4022 63.9997 23.2748 63.9997H34.9112C35.7839 63.9997 36.3657 63.4178 36.3657 62.5452C36.3657 61.6726 35.7838 61.0907 34.9112 61.0907H25.0203C25.6022 59.3452 27.2022 58.1816 29.0931 58.1816H34.9112C37.3839 58.1816 39.2748 60.0725 39.2748 62.5452C39.2748 63.418 39.8567 63.9997 40.7293 63.9997C41.6019 63.9997 42.1838 63.4178 42.1838 62.5452C42.1839 58.4725 38.9839 55.2725 34.9112 55.2725Z" fill="white"/>
<path d="M55.2728 37.8184H52.3636C49.8909 37.8184 48 39.7092 48 42.182V46.5456C48 49.7456 50.6181 52.3637 53.8181 52.3637C57.0181 52.3637 59.6362 49.7456 59.6362 46.5456V42.182C59.6364 39.7094 57.7455 37.8184 55.2728 37.8184ZM56.7272 46.5457C56.7272 48.1457 55.4181 49.4549 53.8181 49.4549C52.2181 49.4549 50.909 48.1457 50.909 46.5457V42.1821C50.909 41.3094 51.4909 40.7276 52.3635 40.7276H55.2726C56.1454 40.7276 56.7271 41.3095 56.7271 42.1821V46.5457H56.7272Z" fill="#0585F2"/>
<path d="M56.7276 55.2725H50.9095C46.8367 55.2725 43.6367 58.4725 43.6367 62.5452C43.6367 63.418 44.2186 63.9997 45.0912 63.9997H56.7276C57.6003 63.9997 58.1821 63.4178 58.1821 62.5452C58.1821 61.6726 57.6002 61.0907 56.7276 61.0907H46.8367C47.4186 59.3452 49.0186 58.1816 50.9095 58.1816H56.7276C59.2003 58.1816 61.0912 60.0725 61.0912 62.5452C61.0912 63.418 61.6731 63.9997 62.5457 63.9997C63.4183 63.9997 64.0003 63.4178 64.0003 62.5452C64.0003 58.4725 60.8003 55.2725 56.7276 55.2725Z" fill="#0585F2"/>
<path d="M13.0929 37.8184H10.1839C7.71119 37.8184 5.82031 39.7092 5.82031 42.182V46.5456C5.82031 49.7456 8.43844 52.3637 11.6384 52.3637C14.8384 52.3637 17.4566 49.7456 17.4566 46.5456V42.182C17.4566 39.7094 15.5657 37.8184 13.0929 37.8184ZM14.5476 46.5457C14.5476 48.1457 13.2384 49.4549 11.6384 49.4549C10.0384 49.4549 8.72931 48.1457 8.72931 46.5457V42.1821C8.72931 41.3094 9.31119 40.7276 10.1838 40.7276H13.0929C13.9657 40.7276 14.5474 41.3095 14.5474 42.1821V46.5457H14.5476Z" fill="white"/>
<path d="M13.0909 55.2729H7.27275C3.2 55.2729 0 58.4729 0 62.5457C0 63.4183 0.581875 64.0002 1.4545 64.0002H13.0909C13.9636 64.0002 14.5454 63.4183 14.5454 62.5457C14.5454 61.6731 13.9635 61.0912 13.0909 61.0912H3.2C3.78188 59.3457 5.38188 58.1821 7.27275 58.1821H13.0909C15.5636 58.1821 17.4545 60.073 17.4545 62.5457C17.4545 63.4185 18.0364 64.0002 18.909 64.0002C19.7817 64.0002 20.3635 63.4183 20.3635 62.5457C20.3636 58.4729 17.1636 55.2729 13.0909 55.2729Z" fill="white"/>
</g>
<defs>
<clipPath id="clip0_223_22520">
<rect width="64" height="64" fill="white"/>
</clipPath>
</defs>
</svg>
