<svg width="883" height="668" viewBox="0 0 883 668" fill="none" xmlns="http://www.w3.org/2000/svg">
<g opacity="0.6" filter="url(#filter0_f_223_21108)">
<path d="M519.336 251.626C519.182 294.496 484.34 329.252 441.516 329.252C440.017 329.252 438.517 329.22 437.017 329.124C436.475 329.092 435.933 329.092 435.358 329.092C419.658 329.092 406.881 341.838 406.825 357.555C406.804 363.337 408.508 368.703 411.428 373.176C419.457 385.411 424.064 400.073 424.008 415.822C423.855 458.692 389.012 493.448 346.188 493.448C303.365 493.448 268.77 458.692 268.923 415.822C268.98 400.073 273.723 385.411 281.808 373.176C284.792 368.703 286.502 363.305 286.523 357.555C286.579 341.838 273.892 329.092 258.192 329.092C257.65 329.092 257.075 329.092 256.533 329.124H256.501C255.032 329.22 253.533 329.252 252.033 329.252C209.305 329.252 174.711 294.496 174.864 251.626C175.017 208.756 209.859 174 252.683 174C295.506 174 330.101 208.756 329.948 251.626C329.903 264.18 326.893 276 321.59 286.51C319.63 290.343 318.53 294.687 318.513 299.287C318.457 315.004 331.144 327.75 346.844 327.75C362.544 327.75 375.321 315.004 375.377 299.287C375.394 294.687 374.324 290.343 372.392 286.51C367.164 276.032 364.238 264.18 364.283 251.626C364.404 208.756 399.247 174 442.071 174C484.894 174 519.489 208.756 519.336 251.626Z" fill="url(#paint0_linear_223_21108)" fill-opacity="0.8"/>
<path d="M519.336 251.626C519.182 294.496 484.34 329.252 441.516 329.252C440.017 329.252 438.517 329.22 437.017 329.124C436.475 329.092 435.933 329.092 435.358 329.092C419.658 329.092 406.881 341.838 406.825 357.555C406.804 363.337 408.508 368.703 411.428 373.176C419.457 385.411 424.064 400.073 424.008 415.822C423.855 458.692 389.012 493.448 346.188 493.448C303.365 493.448 268.77 458.692 268.923 415.822C268.98 400.073 273.723 385.411 281.808 373.176C284.792 368.703 286.502 363.305 286.523 357.555C286.579 341.838 273.892 329.092 258.192 329.092C257.65 329.092 257.075 329.092 256.533 329.124H256.501C255.032 329.22 253.533 329.252 252.033 329.252C209.305 329.252 174.711 294.496 174.864 251.626C175.017 208.756 209.859 174 252.683 174C295.506 174 330.101 208.756 329.948 251.626C329.903 264.18 326.893 276 321.59 286.51C319.63 290.343 318.53 294.687 318.513 299.287C318.457 315.004 331.144 327.75 346.844 327.75C362.544 327.75 375.321 315.004 375.377 299.287C375.394 294.687 374.324 290.343 372.392 286.51C367.164 276.032 364.238 264.18 364.283 251.626C364.404 208.756 399.247 174 442.071 174C484.894 174 519.489 208.756 519.336 251.626Z" fill="url(#paint1_linear_223_21108)" fill-opacity="0.8"/>
</g>
<g opacity="0.6" filter="url(#filter1_f_223_21108)">
<path d="M553.637 251.626C553.592 264.18 556.518 276 561.745 286.51C573.785 310.596 598.009 327.495 626.403 329.124C627.903 329.22 629.402 329.252 630.902 329.252C673.726 329.252 708.568 294.496 708.721 251.626C708.874 208.756 674.28 174 631.456 174C588.633 174 553.79 208.756 553.637 251.626Z" fill="url(#paint2_linear_223_21108)" fill-opacity="0.8"/>
<path d="M553.637 251.626C553.592 264.18 556.518 276 561.745 286.51C573.785 310.596 598.009 327.495 626.403 329.124C627.903 329.22 629.402 329.252 630.902 329.252C673.726 329.252 708.568 294.496 708.721 251.626C708.874 208.756 674.28 174 631.456 174C588.633 174 553.79 208.756 553.637 251.626Z" fill="url(#paint3_linear_223_21108)" fill-opacity="0.8"/>
</g>
<g opacity="0.6" filter="url(#filter2_f_223_21108)">
<path d="M471.26 373.176C463.175 385.411 458.431 400.073 458.375 415.822C458.222 458.692 492.817 493.448 535.64 493.448C578.464 493.448 613.306 458.692 613.459 415.822C613.516 400.073 608.877 385.411 600.879 373.176C587.074 352.124 563.286 338.196 536.194 338.196C509.103 338.196 485.184 352.092 471.26 373.176Z" fill="url(#paint4_linear_223_21108)" fill-opacity="0.8"/>
<path d="M471.26 373.176C463.175 385.411 458.431 400.073 458.375 415.822C458.222 458.692 492.817 493.448 535.64 493.448C578.464 493.448 613.306 458.692 613.459 415.822C613.516 400.073 608.877 385.411 600.879 373.176C587.074 352.124 563.286 338.196 536.194 338.196C509.103 338.196 485.184 352.092 471.26 373.176Z" fill="url(#paint5_linear_223_21108)" fill-opacity="0.8"/>
</g>
<defs>
<filter id="filter0_f_223_21108" x="0.863281" y="0" width="692.473" height="667.448" filterUnits="userSpaceOnUse" color-interpolation-filters="sRGB">
<feFlood flood-opacity="0" result="BackgroundImageFix"/>
<feBlend mode="normal" in="SourceGraphic" in2="BackgroundImageFix" result="shape"/>
<feGaussianBlur stdDeviation="87" result="effect1_foregroundBlur_223_21108"/>
</filter>
<filter id="filter1_f_223_21108" x="379.637" y="0" width="503.086" height="503.251" filterUnits="userSpaceOnUse" color-interpolation-filters="sRGB">
<feFlood flood-opacity="0" result="BackgroundImageFix"/>
<feBlend mode="normal" in="SourceGraphic" in2="BackgroundImageFix" result="shape"/>
<feGaussianBlur stdDeviation="87" result="effect1_foregroundBlur_223_21108"/>
</filter>
<filter id="filter2_f_223_21108" x="284.375" y="164.196" width="503.086" height="503.251" filterUnits="userSpaceOnUse" color-interpolation-filters="sRGB">
<feFlood flood-opacity="0" result="BackgroundImageFix"/>
<feBlend mode="normal" in="SourceGraphic" in2="BackgroundImageFix" result="shape"/>
<feGaussianBlur stdDeviation="87" result="effect1_foregroundBlur_223_21108"/>
</filter>
<linearGradient id="paint0_linear_223_21108" x1="251.29" y1="484.032" x2="570.868" y2="336.655" gradientUnits="userSpaceOnUse">
<stop stop-color="#76B4F4"/>
<stop offset="0.270833" stop-color="#519EF3"/>
<stop offset="0.541667" stop-color="#76B4F4"/>
<stop offset="0.755208" stop-color="#63B5FB"/>
<stop offset="0.979167" stop-color="#63B5FB"/>
</linearGradient>
<linearGradient id="paint1_linear_223_21108" x1="251.29" y1="484.032" x2="570.868" y2="336.655" gradientUnits="userSpaceOnUse">
<stop stop-color="#0685F1"/>
<stop offset="1" stop-color="#62C4D2" stop-opacity="0"/>
</linearGradient>
<linearGradient id="paint2_linear_223_21108" x1="588.157" y1="324.675" x2="735.733" y2="261.67" gradientUnits="userSpaceOnUse">
<stop stop-color="#0685F1"/>
<stop offset="0.270833" stop-color="#519EF3"/>
<stop offset="0.541667" stop-color="#76B4F4"/>
<stop offset="0.755208" stop-color="#62C4D2"/>
<stop offset="0.979167" stop-color="#63B5FB"/>
</linearGradient>
<linearGradient id="paint3_linear_223_21108" x1="588.157" y1="324.675" x2="735.733" y2="261.67" gradientUnits="userSpaceOnUse">
<stop stop-color="#0685F1"/>
<stop offset="1" stop-color="#62C4D2" stop-opacity="0"/>
</linearGradient>
<linearGradient id="paint4_linear_223_21108" x1="492.896" y1="488.872" x2="640.471" y2="425.867" gradientUnits="userSpaceOnUse">
<stop stop-color="#0685F1"/>
<stop offset="0.270833" stop-color="#519EF3"/>
<stop offset="0.541667" stop-color="#76B4F4"/>
<stop offset="0.755208" stop-color="#62C4D2"/>
<stop offset="0.979167" stop-color="#63B5FB"/>
</linearGradient>
<linearGradient id="paint5_linear_223_21108" x1="492.896" y1="488.872" x2="640.471" y2="425.867" gradientUnits="userSpaceOnUse">
<stop stop-color="#0685F1"/>
<stop offset="1" stop-color="#62C4D2" stop-opacity="0"/>
</linearGradient>
</defs>
</svg>
