<svg width="137" height="152" viewBox="0 0 137 152" fill="none" xmlns="http://www.w3.org/2000/svg">
<g opacity="0.6">
<path d="M7 46L7 124C7 135.046 15.9235 144 26.9692 144C54.8602 144 104.474 144 126 144" stroke="#A1A1AA" stroke-width="2" stroke-linecap="round" stroke-dasharray="4 4"/>
<path d="M127 151L134 144L127 137" stroke="#211B32" stroke-width="2" stroke-linecap="round" stroke-linejoin="round"/>
<path fill-rule="evenodd" clip-rule="evenodd" d="M8 13C5.23858 13 3 10.7614 3 8C3 5.23858 5.23858 3 8 3C10.7614 3 13 5.23858 13 8C13 10.7614 10.7614 13 8 13Z" fill="#211B32"/>
<path fill-rule="evenodd" clip-rule="evenodd" d="M13 38C13 35.2386 10.7614 33 8 33C5.23858 33 3 35.2386 3 38C3 40.7614 5.23858 43 8 43C10.7614 43 13 40.7614 13 38Z" fill="#211B32"/>
</g>
</svg>
