<svg width="498" height="484" viewBox="0 0 498 484" fill="none" xmlns="http://www.w3.org/2000/svg">
<g opacity="0.6" filter="url(#filter0_f_326_15041)">
<path d="M150.159 194.526C150.246 219.116 170.187 239.052 194.695 239.052C195.554 239.052 196.412 239.034 197.27 238.979C197.58 238.96 197.891 238.96 198.22 238.96C207.205 238.96 214.518 246.271 214.55 255.286C214.562 258.603 213.586 261.681 211.915 264.247C207.32 271.264 204.684 279.675 204.716 288.708C204.803 313.298 224.744 333.234 249.252 333.234C273.761 333.234 293.559 313.298 293.472 288.708C293.44 279.675 290.725 271.264 286.098 264.247C284.39 261.681 283.411 258.585 283.4 255.286C283.368 246.271 290.628 238.96 299.613 238.96C299.924 238.96 300.253 238.96 300.563 238.979L300.581 238.979C301.422 239.034 302.28 239.052 303.138 239.052C327.592 239.052 347.391 219.116 347.303 194.526C347.216 169.936 327.275 150 302.766 150C278.258 150 258.459 169.936 258.547 194.526C258.573 201.727 260.295 208.507 263.33 214.535C264.452 216.734 265.082 219.226 265.091 221.864C265.123 230.88 257.862 238.191 248.877 238.191C239.892 238.191 232.579 230.88 232.547 221.864C232.538 219.226 233.15 216.734 234.256 214.535C237.248 208.525 238.922 201.727 238.896 194.526C238.827 169.936 218.886 150 194.378 150C169.87 150 150.071 169.936 150.159 194.526Z" fill="url(#paint0_linear_326_15041)" fill-opacity="0.9"/>
<path d="M150.159 194.526C150.246 219.116 170.187 239.052 194.695 239.052C195.554 239.052 196.412 239.034 197.27 238.979C197.58 238.96 197.891 238.96 198.22 238.96C207.205 238.96 214.518 246.271 214.55 255.286C214.562 258.603 213.586 261.681 211.915 264.247C207.32 271.264 204.684 279.675 204.716 288.708C204.803 313.298 224.744 333.234 249.252 333.234C273.761 333.234 293.559 313.298 293.472 288.708C293.44 279.675 290.725 271.264 286.098 264.247C284.39 261.681 283.411 258.585 283.4 255.286C283.368 246.271 290.628 238.96 299.613 238.96C299.924 238.96 300.253 238.96 300.563 238.979L300.581 238.979C301.422 239.034 302.28 239.052 303.138 239.052C327.592 239.052 347.391 219.116 347.303 194.526C347.216 169.936 327.275 150 302.766 150C278.258 150 258.459 169.936 258.547 194.526C258.573 201.727 260.295 208.507 263.33 214.535C264.452 216.734 265.082 219.226 265.091 221.864C265.123 230.88 257.862 238.191 248.877 238.191C239.892 238.191 232.579 230.88 232.547 221.864C232.538 219.226 233.15 216.734 234.256 214.535C237.248 208.525 238.922 201.727 238.896 194.526C238.827 169.936 218.886 150 194.378 150C169.87 150 150.071 169.936 150.159 194.526Z" fill="url(#paint1_linear_326_15041)" fill-opacity="0.9"/>
</g>
<defs>
<filter id="filter0_f_326_15041" x="0.160156" y="0" width="497.145" height="483.234" filterUnits="userSpaceOnUse" color-interpolation-filters="sRGB">
<feFlood flood-opacity="0" result="BackgroundImageFix"/>
<feBlend mode="normal" in="SourceGraphic" in2="BackgroundImageFix" result="shape"/>
<feGaussianBlur stdDeviation="75" result="effect1_foregroundBlur_326_15041"/>
</filter>
<linearGradient id="paint0_linear_326_15041" x1="303.564" y1="327.833" x2="120.522" y2="243.612" gradientUnits="userSpaceOnUse">
<stop stop-color="#76B4F4"/>
<stop offset="0.270833" stop-color="#519EF3"/>
<stop offset="0.541667" stop-color="#76B4F4"/>
<stop offset="0.755208" stop-color="#63B5FB"/>
<stop offset="0.979167" stop-color="#63B5FB"/>
</linearGradient>
<linearGradient id="paint1_linear_326_15041" x1="303.564" y1="327.833" x2="120.522" y2="243.612" gradientUnits="userSpaceOnUse">
<stop stop-color="#0685F1"/>
<stop offset="1" stop-color="#62C4D2" stop-opacity="0"/>
</linearGradient>
</defs>
</svg>
